grf.mot
version=1
nRows=9
nColumns=31
inDegrees=yes
endheader
time	ground_force_vx	ground_force_vy	ground_force_vz	ground_force_px	ground_force_py	ground_force_pz	1_ground_force_vx	1_ground_force_vy	1_ground_force_vz	1_ground_force_px	1_ground_force_py	1_ground_force_pz	ground_torque_x	ground_torque_y	ground_torque_z	1_ground_torque_x	1_ground_torque_y	1_ground_torque_z	apo_force_vx	apo_force_vy	apo_force_vz	apo_force_px	apo_force_py	apo_force_pz	1_apo_force_vx	1_apo_force_vy	1_apo_force_vz	1_apo_force_px	1_apo_force_py	1_apo_force_pz	
3.71526000000000	-1.37992000000000	51.51960000000000	5.94680000000000	0.04794130000000	0.00000000000000	0.00688829000000	103.68800000000000	812.28700000000003	46.09850000000000	-0.19551000000000	0.00000000000000	-0.14604800000000	0.00000000000000	-0.19390100000000	0.00000000000000	0.00000000000000	0.65606600000000	0.00000000000000	2.25680000000000	1.57430000000000	0.00000000000000	0.00000000000000	-0.35000000000000	0.00000000000000	-2.44440000000000	0.22853000000000	0.00000000000000	0.00000000000000	-0.35000000000000	0.00000000000000	
3.72026000000000	-6.55519000000000	76.30300000000000	6.17692000000000	0.06108080000000	0.00000000000000	0.00980150000000	108.57299999999999	807.79800000000000	43.22040000000000	-0.20536500000000	0.00000000000000	-0.14629100000000	0.00000000000000	-0.21717800000000	0.00000000000000	0.00000000000000	0.31030700000000	0.00000000000000	2.38760000000000	1.66190000000000	0.00000000000000	0.00000000000000	-0.35000000000000	0.00000000000000	-2.61700000000000	0.27781000000000	0.00000000000000	0.00000000000000	-0.35000000000000	0.00000000000000	
3.72526000000000	-10.70120000000000	95.72669999999999	6.21381000000000	0.07083750000000	0.00000000000000	0.01199720000000	111.53300000000000	802.32000000000005	40.93110000000000	-0.21227200000000	0.00000000000000	-0.14646700000000	0.00000000000000	-0.22932900000000	0.00000000000000	0.00000000000000	0.06105220000000	0.00000000000000	2.51510000000000	1.74740000000000	0.00000000000000	0.00000000000000	-0.35000000000000	0.00000000000000	-2.76900000000000	0.32830000000000	0.00000000000000	0.00000000000000	-0.35000000000000	0.00000000000000	
3.73026000000000	-11.33420000000000	98.66570000000000	6.20839000000000	0.07227040000000	0.00000000000000	0.01232240000000	111.91700000000000	801.34799999999996	40.58340000000000	-0.21325500000000	0.00000000000000	-0.14649200000000	0.00000000000000	-0.23069200000000	0.00000000000000	0.00000000000000	0.02501410000000	0.00000000000000	2.60440000000000	1.80680000000000	0.00000000000000	0.00000000000000	-0.35000000000000	0.00000000000000	-2.85730000000000	0.37337000000000	0.00000000000000	0.00000000000000	-0.35000000000000	0.00000000000000	
3.73526000000000	-11.96730000000000	101.60500000000000	6.20296000000000	0.07370330000000	0.00000000000000	0.01264760000000	112.30000000000000	800.37599999999998	40.23560000000000	-0.21423900000000	0.00000000000000	-0.14651600000000	0.00000000000000	-0.23205600000000	0.00000000000000	0.00000000000000	-0.01102390000000	0.00000000000000	2.68910000000000	1.86370000000000	0.00000000000000	0.00000000000000	-0.35000000000000	0.00000000000000	-2.94440000000000	0.41933000000000	0.00000000000000	0.00000000000000	-0.35000000000000	0.00000000000000	
3.74026000000000	-12.60030000000000	104.54400000000000	6.19754000000000	0.07513630000000	0.00000000000000	0.01297290000000	112.68300000000001	799.40400000000000	39.88790000000000	-0.21522200000000	0.00000000000000	-0.14654100000000	0.00000000000000	-0.23341900000000	0.00000000000000	0.00000000000000	-0.04706200000000	0.00000000000000	2.76630000000000	1.91630000000000	0.00000000000000	0.00000000000000	-0.35000000000000	0.00000000000000	-3.02880000000000	0.46559000000000	0.00000000000000	0.00000000000000	-0.35000000000000	0.00000000000000	
3.74526000000000	-19.48340000000000	136.20300000000000	5.98279000000000	0.08993040000000	0.00000000000000	0.01637360000000	115.91100000000000	787.00300000000004	36.14020000000000	-0.22493400000000	0.00000000000000	-0.14677900000000	0.00000000000000	-0.24124700000000	0.00000000000000	0.00000000000000	-0.41125500000000	0.00000000000000	2.90770000000000	2.01440000000000	0.00000000000000	0.00000000000000	-0.35000000000000	0.00000000000000	-3.21500000000000	0.52894000000000	0.00000000000000	0.00000000000000	-0.35000000000000	0.00000000000000	
3.75026000000000	-27.15470000000000	171.18000000000001	5.51064000000000	0.10526300000000	0.00000000000000	0.01996980000000	118.16900000000000	770.56299999999999	32.02700000000000	-0.23434600000000	0.00000000000000	-0.14697900000000	0.00000000000000	-0.23943600000000	0.00000000000000	0.00000000000000	-0.77708600000000	0.00000000000000	3.05850000000000	2.12040000000000	0.00000000000000	0.00000000000000	-0.35000000000000	0.00000000000000	-3.40200000000000	0.59450000000000	0.00000000000000	0.00000000000000	-0.35000000000000	0.00000000000000	
3.75526000000000	-35.54630000000000	209.31000000000000	4.76370000000000	0.12091500000000	0.00000000000000	0.02372360000000	119.38200000000001	750.12500000000000	27.60790000000000	-0.24329200000000	0.00000000000000	-0.14711400000000	0.00000000000000	-0.22696700000000	0.00000000000000	0.00000000000000	-1.13909000000000	0.00000000000000	3.22010000000000	2.23540000000000	0.00000000000000	0.00000000000000	-0.35000000000000	0.00000000000000	-3.58860000000000	0.66151000000000	0.00000000000000	0.00000000000000	-0.35000000000000	0.00000000000000	
